# xmcd
#
# Track frame offsets:
#	150
#	12880
#	25137
#	37388
#	51048
#	61913
#	71299
#	84661
#	96502
#	107590
#
# Disc length: 1642 seconds
#
# Revision: 1
# Processed by: cddbd v1.5.1PL0 Copyright (c) Steve Scherf et al.
# Submitted via: EasyCDDAExtractor 7.0.5.4
#
DISCID=7f06680a
DTITLE=EDDIE DEAN - EDDIE DEAN COUNTRY HITS
DYEAR=1992
DGENRE=COUNTRY
TTITLE0=ALL I HAVE TO OFFER YOU IS ME
TTITLE1=FOGGY RIVER
TTITLE2=I CAN'T HELP FALLING IN LOVE WITH YOU
TTITLE3=COOL WATER
TTITLE4=YOU'RE CHEATING HEART
TTITLE5=SAN ANTONIO ROSE
TTITLE6=FOUR WALLS
TTITLE7=I CAN'T STOP LOVING YOU
TTITLE8=TODAY I STARTED LOVING YOU AGAIN
TTITLE9=MY ELUSIVE DREAMS
EXTD=
EXTT0=
EXTT1=
EXTT2=
EXTT3=
EXTT4=
EXTT5=
EXTT6=
EXTT7=
EXTT8=
EXTT9=
PLAYORDER=
